# xmcd
# 
# Track frame offsets:
#     150
#     15275
#     32377
#     46470
#     67627
#     82872
#     100652
#     116265
#     129357
#     143452
#     160405
#     179425
#     193755
#     213370
#     231802
# 
# Disc length: 3282
# 
# Revision: 8
# Processed by: cddbd v1.5.2PL0 Copyright (c) Steve Scherf et al.
# Submitted via: fre:ac v1.0.27
# 
DISCID=ad0cd00f
DTITLE=Various Artist - 青春歌年鑑 '76 BEST 30 DISC 2
DYEAR=2000
DGENRE=JPop
TTITLE0=キャンディーズ - 春一番
TTITLE1=小椋佳 - 揺れるまなざし
TTITLE2=山口百恵 - パールカラーにゆれて
TTITLE3=中村雅俊 - 盆帰り
TTITLE4=郷ひろみ - あなたがいたから僕がいた
TTITLE5=シグナル - 20歳のめぐり逢い
TTITLE6=ダウン・タウン・ヴギウギ・バンド - 裏切り者の旅
TTITLE7=のこいのこ - パタパタママ
TTITLE8=キャンディーズ - ハートのエースが出てこない
TTITLE9=新沼謙二 - 嫁に来ないか
TTITLE10=布施明 - 傾いた道しるべ
TTITLE11=松本ちえこ - 恋人試験
TTITLE12=研ナオコ - 愚図
TTITLE13=アリス - 帰らざる日々
TTITLE14=ミス花子 - 河内のオッサンの唄
EXTD=2000/11/22\n日本コロムビア COCA-70256
EXTT0=
EXTT1=
EXTT2=
EXTT3=
EXTT4=
EXTT5=
EXTT6=
EXTT7=
EXTT8=
EXTT9=
EXTT10=
EXTT11=
EXTT12=
EXTT13=
EXTT14=
PLAYORDER=
